# xmcd
#
# Track frame offsets:
#	150
#	10976
#	22957
#	36414
#	54037
#	70637
#	87983
#	104894
#	120442
#	136071
#	149858
#	164435
#	174717
#	186083
#	204002
#
# Disc length: 2888 seconds
#
# Revision: 0
# Processed by: cddbd v1.5.2PL0 Copyright (c) Steve Scherf et al.
# Submitted via: audiograbber 1.83.01
#
DISCID=cc0b460f
DTITLE=Valentín ELizalde - Homenaje a una vida Vol. 1
DYEAR=1900
DGENRE=
TTITLE0=Y se parece a tí
TTITLE1=Vete ya
TTITLE2=La más deseada
TTITLE3=El venadito
TTITLE4=Mi niña
TTITLE5=Sobre la tumba de mi padre
TTITLE6=Nada
TTITLE7=Gracias porque volviste
TTITLE8=Por qué te extraño
TTITLE9=Vencedor
TTITLE10=Vidita mía
TTITLE11=Ya viene amaneciendo
TTITLE12=La vida no es
TTITLE13=En esta navidad
TTITLE14=Tengo ganas
EXTD=
EXTT0=
EXTT1=
EXTT2=
EXTT3=
EXTT4=
EXTT5=
EXTT6=
EXTT7=
EXTT8=
EXTT9=
EXTT10=
EXTT11=
EXTT12=
EXTT13=
EXTT14=
PLAYORDER=
